<svg xmlns="http://www.w3.org/2000/svg" version="1.1" xmlns:xlink="http://www.w3.org/1999/xlink" xmlns:svgjs="http://svgjs.dev/svgjs" width="2000" height="641" viewBox="0 0 2000 641"><g transform="matrix(1,0,0,1,-1.2112696095522324,-0.22016796203467948)"><svg viewBox="0 0 396 127" data-background-color="#ffffff" preserveAspectRatio="xMidYMid meet" height="641" width="2000" xmlns="http://www.w3.org/2000/svg" xmlns:xlink="http://www.w3.org/1999/xlink"><g id="tight-bounds" transform="matrix(1,0,0,1,0.24008861730862918,0.04362142149517467)"><svg viewBox="0 0 395.52 126.91275715700965" height="126.91275715700965" width="395.52"><g><svg viewBox="0 0 395.52 126.91275715700965" height="126.91275715700965" width="395.52"><g><svg viewBox="0 0 395.52 126.91275715700965" height="126.91275715700965" width="395.52"><g id="textblocktransform"><svg viewBox="0 0 395.52 126.91275715700965" height="126.91275715700965" width="395.52" id="textblock"><g><svg viewBox="0 0 395.52 95.34814334400166" height="95.34814334400166" width="395.52"><path d="M394.594 20.45C392.735 10.553 387.435 7.802 387.435 7.802 371.165-2.392 350.86-0.195 332.619 1.27 300.414 1.329 268.339 3.507 236.208 4.674 168.767 4.853 100.749 1.923 33.643 9.148 27.339 11.365-6.54 9.583 1.121 21.717 3.129 26.765 10.456 32.366 10.232 36.998 11.236 37.81 12.631 35.949 13.226 37.117 15.309 40.264 18.711 38.78 21.501 40.64 17.614 45.609 20.403 49.746 23.062 54.081 18.377 55.209 12.371 54.675 9.675 58.416 9.396 61.127 7.89 60.613 6.235 60.494 5.026 60.415 2.59 60.712 2.999 61.563 4.394 64.473-1.594 66.155 2.162 69.006-0.422 72.093 3.948 74.766 3.353 78.111 3.278 78.784 3.687 79.358 4.338 79.516 7.22 80.367 3.018 82.03 3.464 83.831 33.029 96.143 65.104 87.632 95.394 93.293 103.259 89.334 97.346 94.698 100.489 93.867 102.943 92.897 104.728 96.915 107.499 94.639 107.927 93.986 107.276 92.442 108.8 92.739 109.6 92.897 110.307 92.858 110.418 91.947 110.586 90.581 109.117 91.432 108.726 90.72 112.947 87.117 111.906 95.688 115.866 95.332 115.68 94.283 114.528 92.778 116.889 92.976 119.232 91.472 119.306 90.225 121.389 93.61 121.463 94.342 121.835 94.857 122.43 95.213 128.938 91.531 135.409 96.519 142.233 94.857 146.417 93.036 150.433 95.846 154.672 95.154 156.16 94.599 157.666 93.61 159.098 95.272 176.632 95.629 195.319 94.144 211.943 95.332 256.364 93.115 303.836 96.242 350.674 93.313 361.719 92.185 373.192 90.581 383.958 89.295 383.958 89.295 392.679 85.771 392.679 69.936S394.538 56.08 394.817 43.471C395.096 30.862 396.398 30.347 394.538 20.45Z" opacity="1" fill="#f3ecda" data-fill-palette-color="tertiary"></path><g transform="matrix(1,0,0,1,55.76832,26.068561146666667)"><svg width="283.98335999999995" viewBox="1.8 -37.1 321.67 48.95" height="43.21102105066832" data-palette-color="#3e4f3c"><path d="M22.5 0.6Q18.6 0.6 18.05-2.95L18.05-2.95 17.7-3.1Q12.5 0.45 11.45 0.45L11.45 0.45Q8.6 0.45 6.4-0.88 4.2-2.2 3-4.6 1.8-7 1.8-10.1L1.8-10.1Q1.8-13.65 3.48-16.65 5.15-19.65 8.03-21.43 10.9-23.2 14.25-23.2L14.25-23.2Q15.85-23.2 17.7-23L17.7-23 17.7-31.3Q17.7-34 15.85-34L15.85-34Q15.5-34 15.1-33.93 14.7-33.85 14.6-33.8L14.6-33.8 14.8-35.65Q16.95-35.95 19.25-36.45 21.55-36.95 22.2-37.1L22.2-37.1 22.5-36.45Q21.95-35.6 21.53-25.9 21.1-16.2 21.1-5.25L21.1-5.25Q21.1-4.15 21.65-3.55 22.2-2.95 23.15-2.95L23.15-2.95Q23.85-2.95 24.53-3.23 25.2-3.5 25.63-3.8 26.05-4.1 26.15-4.2L26.15-4.2 26.85-3.4Q26.7-3.15 26.1-2.33 25.5-1.5 24.53-0.6 23.55 0.3 22.5 0.6L22.5 0.6ZM12.25-2.8Q13.3-2.8 14.53-3.4 15.75-4 16.6-4.63 17.45-5.25 17.7-5.45L17.7-5.45 17.7-19.15Q17.55-19.25 16.95-19.53 16.35-19.8 15.28-20.05 14.2-20.3 12.85-20.3L12.85-20.3Q9.5-20.3 7.58-18.03 5.65-15.75 5.65-11.8L5.65-11.8Q5.65-9.3 6.53-7.25 7.4-5.2 8.93-4 10.45-2.8 12.25-2.8L12.25-2.8ZM45.45 0.6Q41.4 0.6 41-3.45L41-3.45 40.8-3.5Q39-1.7 37.52-0.65 36.05 0.4 35.3 0.4L35.3 0.4Q32.5 0.4 30.7-1.35 28.9-3.1 28.9-5.8L28.9-5.8Q28.9-7.25 29.62-8.35 30.35-9.45 31.55-9.8L31.55-9.8 41.05-12.4 41.1-14.6Q41.1-17.1 39.95-18.5 38.8-19.9 36.7-19.9L36.7-19.9Q35.3-19.9 33.75-19.25 32.2-18.6 30.7-17.4L30.7-17.4 30.45-17.55 29.85-19.7Q32.2-21.05 34.57-22.13 36.95-23.2 38-23.2L38-23.2Q41.25-23.2 43.1-21.5 44.95-19.8 44.95-16.75L44.95-16.75Q44.95-15.65 44.6-12.25L44.6-12.25Q44.05-6.75 44.05-5.25L44.05-5.25Q44.05-4.15 44.6-3.55 45.15-2.95 46.1-2.95L46.1-2.95Q46.9-2.95 47.75-3.33 48.6-3.7 49.1-4.2L49.1-4.2 49.8-3.4Q49.05-2.15 47.87-0.98 46.7 0.2 45.45 0.6L45.45 0.6ZM36.15-3Q37.1-3 38.37-3.68 39.65-4.35 40.7-5.4L40.7-5.4 40.95-10.5 34.15-8.45Q32.7-8 32.7-6.35L32.7-6.35Q32.7-4.9 33.67-3.95 34.65-3 36.15-3L36.15-3ZM58.7 0.6Q57.1 0.6 55.77 0.38 54.45 0.15 53.7-0.1 52.95-0.35 52.75-0.45L52.75-0.45 52.6-0.8Q52.75-1.55 52.95-3.9 53.15-6.25 53.2-7.5L53.2-7.5 54.95-7.75Q54.95-4.45 56.05-3.1 57.15-1.75 59.8-1.75L59.8-1.75Q61.7-1.75 63-2.6 64.3-3.45 64.3-4.7L64.3-4.7Q64.3-5.95 63.12-6.98 61.95-8 58.5-9.85L58.5-9.85Q55.65-11.3 54.35-12.8 53.05-14.3 53.05-16.1L53.05-16.1Q53.05-18.1 54.25-19.73 55.45-21.35 57.55-22.28 59.65-23.2 62.25-23.2L62.25-23.2Q63.45-23.2 64.55-23.03 65.65-22.85 66.34-22.65 67.05-22.45 67.25-22.4L67.25-22.4 67.34-22.15Q67.25-21.65 66.9-19.88 66.55-18.1 66.4-16.05L66.4-16.05 64.55-15.9Q64.55-16.05 64.59-16.5 64.65-16.95 64.65-17.35L64.65-17.35Q64.65-19.15 63.67-19.98 62.7-20.8 60.55-20.8L60.55-20.8Q58.85-20.8 57.67-20 56.5-19.2 56.5-18.05L56.5-18.05Q56.5-16.85 57.52-15.8 58.55-14.75 60.85-13.55L60.85-13.55Q64.9-11.4 66.37-9.93 67.84-8.45 67.84-6.55L67.84-6.55Q67.84-4.65 66.59-3 65.34-1.35 63.22-0.38 61.1 0.6 58.7 0.6L58.7 0.6ZM81.74 0.6Q78.89 0.6 76.69-0.8 74.49-2.2 73.27-4.73 72.04-7.25 72.04-10.5L72.04-10.5Q72.04-14 73.57-16.93 75.09-19.85 77.74-21.53 80.39-23.2 83.64-23.2L83.64-23.2Q86.44-23.2 88.67-21.8 90.89-20.4 92.12-17.88 93.34-15.35 93.34-12.1L93.34-12.1Q93.34-8.6 91.82-5.68 90.29-2.75 87.64-1.07 84.99 0.6 81.74 0.6L81.74 0.6ZM83.14-1.85Q85.94-1.85 87.59-4.13 89.24-6.4 89.24-10.3L89.24-10.3Q89.24-13.25 88.34-15.58 87.44-17.9 85.82-19.2 84.19-20.5 82.14-20.5L82.14-20.5Q79.34-20.5 77.69-18.2 76.04-15.9 76.04-11.95L76.04-11.95Q76.04-9 76.94-6.7 77.84-4.4 79.44-3.13 81.04-1.85 83.14-1.85L83.14-1.85ZM111.39-1.45Q112.89-1.85 113.54-2.63 114.19-3.4 114.19-4.7L114.19-4.7 114.39-14.6Q114.39-17.1 113.32-18.45 112.24-19.8 110.24-19.8L110.24-19.8Q108.64-19.8 106.99-18.98 105.34-18.15 104.09-17.2L104.09-17.2Q103.64-6.85 103.64-4.9L103.64-4.9Q103.64-3.35 104.04-2.73 104.44-2.1 105.44-2.1L105.44-2.1Q105.99-2.1 106.49-2.15 106.99-2.2 107.19-2.2L107.19-2.2 107.29-2 106.84 0.15Q106.39 0.1 105.09 0.05 103.79 0 102.29 0L102.29 0Q100.64 0 99.24 0.05 97.84 0.1 97.34 0.1L97.34 0.1 97.64-1.95Q99.09-2.1 99.67-2.7 100.24-3.3 100.24-4.7L100.24-4.7 100.24-16.9Q100.24-18.6 99.69-19.28 99.14-19.95 97.79-19.95L97.79-19.95 97.24-19.95 97.09-20.15 97.24-21.8Q99.39-22.15 101.52-22.63 103.64-23.1 104.24-23.25L104.24-23.25 104.54-22.85Q104.44-22.55 104.24-21.58 104.04-20.6 103.99-19.55L103.99-19.55 104.09-19.4Q109.69-23.2 111.44-23.2L111.44-23.2Q113.84-23.2 115.49-22.18 117.14-21.15 117.84-19.25L117.84-19.25Q119.64-20.55 121.89-21.88 124.14-23.2 125.39-23.2L125.39-23.2Q128.54-23.2 130.39-21.45 132.24-19.7 132.24-16.75L132.24-16.75Q132.24-16.25 131.94-12.15L131.94-12.15Q131.54-6.95 131.54-4.9L131.54-4.9Q131.54-3.35 131.94-2.73 132.34-2.1 133.34-2.1L133.34-2.1Q133.89-2.1 134.39-2.15 134.89-2.2 135.09-2.2L135.09-2.2 135.19-2 134.74 0.15Q134.29 0.1 132.99 0.05 131.69 0 130.19 0L130.19 0Q128.89 0 127.32 0.13 125.74 0.25 125.24 0.3L125.24 0.3 125.49-1.75Q126.94-2 127.54-2.65 128.14-3.3 128.14-4.7L128.14-4.7 128.34-14.6Q128.34-17.1 127.27-18.45 126.19-19.8 124.19-19.8L124.19-19.8Q121.59-19.8 118.14-17.3L118.14-17.3 117.59-4.9Q117.59-3.45 117.99-2.78 118.39-2.1 119.34-2.1L119.34-2.1Q119.89-2.1 120.39-2.15 120.89-2.2 121.09-2.2L121.09-2.2 121.19-2 120.79 0.15Q120.34 0.1 119.09 0.05 117.84 0 116.34 0L116.34 0Q115.04 0 113.37 0.25 111.69 0.5 111.19 0.6L111.19 0.6 111.39-1.45ZM148.89 11.85L149.14 9.9Q150.24 9.75 150.76 9.45 151.29 9.15 151.49 8.45 151.69 7.75 151.69 6.3L151.69 6.3Q151.69 4.2 151.74 2.7L151.74 2.7 151.79-2 151.79-16.9Q151.79-18.6 151.24-19.28 150.69-19.95 149.34-19.95L149.34-19.95 148.79-19.95 148.64-20.15 148.79-21.8Q150.94-22.15 153.06-22.63 155.19-23.1 155.79-23.25L155.79-23.25 156.09-22.85Q156.04-22.6 155.86-21.78 155.69-20.95 155.59-20.15L155.59-20.15 155.79-19.8Q160.49-23.05 161.59-23.05L161.59-23.05Q164.44-23.05 166.64-21.73 168.84-20.4 170.04-18 171.24-15.6 171.24-12.5L171.24-12.5Q171.24-8.95 169.54-5.95 167.84-2.95 164.99-1.18 162.14 0.6 158.79 0.6L158.79 0.6Q157.69 0.6 156.61 0.53 155.54 0.45 155.14 0.4L155.14 0.4 155.19 5.55Q155.19 7.85 155.66 8.68 156.14 9.5 157.54 9.5L157.54 9.5 159.24 9.45 159.34 9.6 158.94 11.5 154.19 11.5Q152.39 11.5 150.86 11.65 149.34 11.8 148.89 11.85L148.89 11.85ZM160.19-2.15Q163.54-2.15 165.46-4.42 167.39-6.7 167.39-10.65L167.39-10.65Q167.39-13.15 166.51-15.2 165.64-17.25 164.11-18.45 162.59-19.65 160.79-19.65L160.79-19.65Q159.79-19.65 158.34-18.98 156.89-18.3 155.59-17.2L155.59-17.2Q155.19-10.65 155.19-3.1L155.19-3.1Q156.19-2.7 157.56-2.43 158.94-2.15 160.19-2.15L160.19-2.15ZM184.53 0.6Q181.68 0.6 179.48-0.8 177.28-2.2 176.06-4.73 174.83-7.25 174.83-10.5L174.83-10.5Q174.83-14 176.36-16.93 177.88-19.85 180.53-21.53 183.18-23.2 186.43-23.2L186.43-23.2Q189.23-23.2 191.46-21.8 193.68-20.4 194.91-17.88 196.13-15.35 196.13-12.1L196.13-12.1Q196.13-8.6 194.61-5.68 193.08-2.75 190.43-1.07 187.78 0.6 184.53 0.6L184.53 0.6ZM185.93-1.85Q188.73-1.85 190.38-4.13 192.03-6.4 192.03-10.3L192.03-10.3Q192.03-13.25 191.13-15.58 190.23-17.9 188.61-19.2 186.98-20.5 184.93-20.5L184.93-20.5Q182.13-20.5 180.48-18.2 178.83-15.9 178.83-11.95L178.83-11.95Q178.83-9 179.73-6.7 180.63-4.4 182.23-3.13 183.83-1.85 185.93-1.85L185.93-1.85ZM200.88-1.8Q202.38-1.95 202.88-2.78 203.38-3.6 203.38-5.95L203.38-5.95 203.38-16.95Q203.38-18.6 202.93-19.3 202.48-20 201.48-20L201.48-20Q201.08-20 200.81-19.95 200.53-19.9 200.43-19.85L200.43-19.85 200.18-20.2 200.33-21.75Q202.23-22.1 204.36-22.6 206.48-23.1 207.08-23.25L207.08-23.25 207.43-22.95Q207.33-22.5 207.13-20.88 206.93-19.25 206.98-17.8L206.98-17.8 207.18-17.65Q208.68-20 210.71-21.5 212.73-23 214.23-23L214.23-23Q214.93-23 215.31-22.93 215.68-22.85 215.78-22.8L215.78-22.8 215.93-22.6Q215.83-21.9 215.51-19.63 215.18-17.35 215.13-15.45L215.13-15.45 213.18-15.3Q213.18-17.35 212.91-18.03 212.63-18.7 211.83-18.7L211.83-18.7Q210.73-18.7 209.48-17.78 208.23-16.85 207.18-15.3L207.18-15.3Q207.13-13.85 206.98-10.5 206.83-7.15 206.78-5.1L206.78-5.1Q206.78-3.4 207.28-2.8 207.78-2.2 209.18-2.2L209.18-2.2Q209.83-2.2 210.48-2.25 211.13-2.3 211.38-2.3L211.38-2.3 211.43-2.1 210.98 0.1Q210.48 0.1 208.98 0.05 207.48 0 205.88 0L205.88 0Q204.03 0 202.53 0.08 201.03 0.15 200.63 0.2L200.63 0.2 200.88-1.8ZM227.38 0.6Q223.98 0.6 222.58-0.78 221.18-2.15 221.18-5.45L221.18-5.45 221.18-17.75Q221.18-19.1 220.58-19.65 219.98-20.2 218.33-20.25L218.33-20.25 218.13-20.55 218.38-22.05Q219.83-22.75 221.2-23.78 222.58-24.8 223.45-25.58 224.33-26.35 224.58-26.6L224.58-26.6 225.58-26.2Q225.53-25.95 225.43-25 225.33-24.05 225.18-22.45L225.18-22.45 232.53-22.6 232.68-22.45 232.23-19.8 224.98-19.95Q224.63-14.45 224.63-7.45L224.63-7.45Q224.63-4.9 225.5-3.85 226.38-2.8 228.53-2.8L228.53-2.8Q229.28-2.8 230.03-3 230.78-3.2 231.28-3.43 231.78-3.65 231.93-3.7L231.93-3.7 232.43-2.4Q232.13-2.15 231.15-1.45 230.18-0.75 229.05-0.08 227.93 0.6 227.38 0.6L227.38 0.6ZM235.88 0.2L236.13-1.75Q238.98-2.15 238.98-4.7L238.98-4.7 238.98-18.2Q238.93-19.4 238.3-19.78 237.68-20.15 235.83-20.25L235.83-20.25 235.63-20.55 235.98-22.25 238.98-22.8 238.98-23Q238.98-27.3 240.4-30.5 241.83-33.7 244.4-35.4 246.98-37.1 250.48-37.1L250.48-37.1Q251.98-37.1 253.25-36.9 254.53-36.7 255.25-36.48 255.98-36.25 256.18-36.15L256.18-36.15 256.28-35.7Q256.13-35.45 255.65-34.52 255.18-33.6 254.73-32.45L254.73-32.45 254.18-32.3Q253.98-32.45 253.2-32.9 252.43-33.35 251.15-33.75 249.88-34.15 248.43-34.15L248.43-34.15Q245.58-34.15 244.18-31.88 242.78-29.6 242.68-24.9L242.68-24.9 242.63-22.45Q245.23-22.45 247.08-22.5 248.93-22.55 249.53-22.6L249.53-22.6 249.68-22.45 249.18-19.8Q248.63-19.85 246.85-19.9 245.08-19.95 242.58-19.95L242.58-19.95 242.38-4.9Q242.38-3.5 243-2.83 243.63-2.15 244.93-2.15L244.93-2.15Q246.13-2.15 246.9-2.2 247.68-2.25 247.93-2.25L247.93-2.25 248.03-2.05 247.68 0.1Q246.98 0.1 245.13 0.05 243.28 0 241.48 0L241.48 0Q239.73 0 238.05 0.08 236.38 0.15 235.88 0.2L235.88 0.2ZM260.67 0.6Q257.82 0.6 255.62-0.8 253.42-2.2 252.2-4.73 250.97-7.25 250.97-10.5L250.97-10.5Q250.97-14 252.5-16.93 254.02-19.85 256.67-21.53 259.32-23.2 262.57-23.2L262.57-23.2Q265.37-23.2 267.6-21.8 269.82-20.4 271.05-17.88 272.27-15.35 272.27-12.1L272.27-12.1Q272.27-8.6 270.75-5.68 269.22-2.75 266.57-1.07 263.92 0.6 260.67 0.6L260.67 0.6ZM262.07-1.85Q264.87-1.85 266.52-4.13 268.17-6.4 268.17-10.3L268.17-10.3Q268.17-13.25 267.27-15.58 266.37-17.9 264.75-19.2 263.12-20.5 261.07-20.5L261.07-20.5Q258.27-20.5 256.62-18.2 254.97-15.9 254.97-11.95L254.97-11.95Q254.97-9 255.87-6.7 256.77-4.4 258.37-3.13 259.97-1.85 262.07-1.85L262.07-1.85ZM275.42 0.6L275.62-1.45Q277.02-1.85 277.6-2.45 278.17-3.05 278.3-3.9 278.42-4.75 278.42-6.75L278.42-6.75 278.42-31.3Q278.42-32.85 278.07-33.4 277.72-33.95 276.62-33.95L276.62-33.95Q276.37-33.95 275.47-33.85L275.47-33.85 275.32-33.95 275.52-35.65Q279.72-36.25 282.92-37.1L282.92-37.1 283.22-36.45Q282.67-35.6 282.25-25.75 281.82-15.9 281.82-4.9L281.82-4.9Q281.82-3.4 282.22-2.75 282.62-2.1 283.57-2.1L283.57-2.1 285.32-2.2 285.42-2 285.02 0.15Q281.72 0 280.57 0L280.57 0Q278.87 0 275.42 0.6L275.42 0.6ZM288.47 0.6L288.67-1.45Q290.17-1.85 290.82-2.63 291.47-3.4 291.47-4.7L291.47-4.7 291.47-17.4Q291.47-20.1 289.62-20.1L289.62-20.1Q289.27-20.1 288.87-20.03 288.47-19.95 288.37-19.9L288.37-19.9 288.57-21.75Q290.67-22.05 292.89-22.55 295.12-23.05 295.77-23.2L295.77-23.2 296.02-22.6Q295.57-21.55 295.22-16.18 294.87-10.8 294.87-4.9L294.87-4.9Q294.87-3.45 295.27-2.78 295.67-2.1 296.62-2.1L296.62-2.1Q297.17-2.1 297.67-2.15 298.17-2.2 298.37-2.2L298.37-2.2 298.47-2 298.07 0.15Q297.62 0.1 296.37 0.05 295.12 0 293.62 0L293.62 0Q292.32 0 290.64 0.25 288.97 0.5 288.47 0.6L288.47 0.6ZM292.87-29.1Q291.72-29.1 291.07-29.85 290.42-30.6 290.42-31.65L290.42-31.65Q290.42-32.85 291.27-33.73 292.12-34.6 293.37-34.6L293.37-34.6Q294.52-34.6 295.17-33.85 295.82-33.1 295.82-32.05L295.82-32.05Q295.82-30.85 294.97-29.98 294.12-29.1 292.87-29.1L292.87-29.1ZM311.87 0.6Q309.02 0.6 306.82-0.8 304.62-2.2 303.39-4.73 302.17-7.25 302.17-10.5L302.17-10.5Q302.17-14 303.69-16.93 305.22-19.85 307.87-21.53 310.52-23.2 313.77-23.2L313.77-23.2Q316.57-23.2 318.79-21.8 321.02-20.4 322.24-17.88 323.47-15.35 323.47-12.1L323.47-12.1Q323.47-8.6 321.94-5.68 320.42-2.75 317.77-1.07 315.12 0.6 311.87 0.6L311.87 0.6ZM313.27-1.85Q316.07-1.85 317.72-4.13 319.37-6.4 319.37-10.3L319.37-10.3Q319.37-13.25 318.47-15.58 317.57-17.9 315.94-19.2 314.32-20.5 312.27-20.5L312.27-20.5Q309.47-20.5 307.82-18.2 306.17-15.9 306.17-11.95L306.17-11.95Q306.17-9 307.07-6.7 307.97-4.4 309.57-3.13 311.17-1.85 313.27-1.85L313.27-1.85Z" opacity="1" transform="matrix(1,0,0,1,0,0)" fill="#3e4f3c" class="wordmark-text-0" data-fill-palette-color="quaternary" id="text-0"></path></svg></g></svg></g><g transform="matrix(1,0,0,1,122.01706716736014,105.54922834955923)"><svg viewBox="0 0 151.4858656652797 21.36352880745042" height="21.36352880745042" width="151.4858656652797"><g transform="matrix(1,0,0,1,0,0)"><svg width="151.4858656652797" viewBox="0.98 -38.43 344.82 48.64" height="21.36352880745042" data-palette-color="#3e4f3c"><path d="M16.41 0L8.4 0 0.98-27.29 8.62-27.29 12.87-8.94 13.09-8.94 17.53-27.29 25-27.29 29.49-9.06 29.74-9.06 33.89-27.29 41.53-27.29 34.11 0 26.1 0 21.41-17.16 21.09-17.16 16.41 0ZM57.96 0.54L57.96 0.54Q53.76 0.54 50.73-1.17 47.7-2.88 46.07-6.04 44.43-9.2 44.43-13.53L44.43-13.53Q44.43-17.72 46.05-20.9 47.68-24.07 50.63-25.85 53.59-27.64 57.59-27.64L57.59-27.64Q61.2-27.64 64.12-26.1 67.04-24.56 68.76-21.48 70.48-18.41 70.48-13.77L70.48-13.77 70.48-11.72 51.88-11.72Q52-8.62 53.68-6.86 55.37-5.1 58.08-5.1L58.08-5.1Q59.96-5.1 61.31-5.91 62.67-6.71 63.25-8.25L63.25-8.25 70.24-7.79Q69.43-4.03 66.22-1.75 63.01 0.54 57.96 0.54ZM51.93-16.38L51.93-16.38 63.23-16.38Q62.96-18.97 61.57-20.48 60.18-22 57.66-22L57.66-22Q55.12-22 53.65-20.42 52.17-18.85 51.93-16.38ZM90.94 0.44L90.94 0.44Q88.74 0.44 87.21-0.29 85.69-1.03 84.72-2.14 83.76-3.25 83.22-4.37L83.22-4.37 82.88-4.37 82.88 0 75.43 0 75.43-36.38 83-36.38 83-22.68 83.22-22.68Q83.74-23.8 84.68-24.95 85.62-26.1 87.17-26.87 88.72-27.64 90.99-27.64L90.99-27.64Q93.99-27.64 96.49-26.09 98.99-24.54 100.51-21.41 102.02-18.29 102.02-13.6L102.02-13.6Q102.02-9.06 100.56-5.92 99.09-2.78 96.58-1.17 94.06 0.44 90.94 0.44ZM82.83-13.62L82.83-13.62Q82.83-10.01 84.33-7.79 85.83-5.57 88.57-5.57L88.57-5.57Q91.35-5.57 92.82-7.82 94.28-10.08 94.28-13.62L94.28-13.62Q94.28-17.19 92.83-19.41 91.38-21.63 88.57-21.63L88.57-21.63Q85.83-21.63 84.33-19.46 82.83-17.29 82.83-13.62ZM126.14 10.21L118.57 10.21 118.57-27.29 126.02-27.29 126.02-22.68 126.36-22.68Q126.87-23.8 127.81-24.95 128.75-26.1 130.3-26.87 131.85-27.64 134.12-27.64L134.12-27.64Q137.12-27.64 139.63-26.09 142.13-24.54 143.64-21.41 145.16-18.29 145.16-13.6L145.16-13.6Q145.16-9.06 143.69-5.92 142.23-2.78 139.71-1.17 137.2 0.44 134.07 0.44L134.07 0.44Q131.87 0.44 130.35-0.29 128.82-1.03 127.86-2.14 126.89-3.25 126.36-4.37L126.36-4.37 126.14-4.37 126.14 10.21ZM125.97-13.62L125.97-13.62Q125.97-10.01 127.47-7.79 128.97-5.57 131.7-5.57L131.7-5.57Q134.49-5.57 135.95-7.82 137.42-10.08 137.42-13.62L137.42-13.62Q137.42-17.19 135.96-19.41 134.51-21.63 131.7-21.63L131.7-21.63Q128.97-21.63 127.47-19.46 125.97-17.29 125.97-13.62ZM167.59-11.6L167.59-11.6 167.59-27.29 175.16-27.29 175.16 0 167.88 0 167.88-4.96 167.59-4.96Q166.69-2.56 164.55-1.1 162.41 0.37 159.34 0.34L159.34 0.34Q155.21 0.37 152.66-2.38 150.11-5.13 150.11-9.91L150.11-9.91 150.11-27.29 157.68-27.29 157.68-11.23Q157.68-8.84 158.97-7.43 160.27-6.03 162.41-6.05L162.41-6.05Q164.44-6.03 166.02-7.45 167.59-8.86 167.59-11.6ZM196.71 0.44L196.71 0.44Q194.52 0.44 192.99-0.29 191.46-1.03 190.5-2.14 189.54-3.25 189-4.37L189-4.37 188.66-4.37 188.66 0 181.21 0 181.21-36.38 188.78-36.38 188.78-22.68 189-22.68Q189.51-23.8 190.45-24.95 191.39-26.1 192.94-26.87 194.49-27.64 196.76-27.64L196.76-27.64Q199.77-27.64 202.27-26.09 204.77-24.54 206.28-21.41 207.8-18.29 207.8-13.6L207.8-13.6Q207.8-9.06 206.33-5.92 204.87-2.78 202.35-1.17 199.84 0.44 196.71 0.44ZM188.61-13.62L188.61-13.62Q188.61-10.01 190.11-7.79 191.61-5.57 194.35-5.57L194.35-5.57Q197.13-5.57 198.59-7.82 200.06-10.08 200.06-13.62L200.06-13.62Q200.06-17.19 198.61-19.41 197.15-21.63 194.35-21.63L194.35-21.63Q191.61-21.63 190.11-19.46 188.61-17.29 188.61-13.62ZM212.75-36.38L220.32-36.38 220.32 0 212.75 0 212.75-36.38ZM233.94 0L226.37 0 226.37-27.29 233.94-27.29 233.94 0ZM230.16-30.79L230.16-30.79Q228.47-30.79 227.26-31.91 226.05-33.03 226.05-34.62L226.05-34.62Q226.05-36.21 227.26-37.32 228.47-38.43 230.16-38.43L230.16-38.43Q231.84-38.43 233.05-37.32 234.26-36.21 234.26-34.62L234.26-34.62Q234.26-33.03 233.05-31.91 231.84-30.79 230.16-30.79ZM262.65-19.51L262.65-19.51 255.76-19.09Q255.47-20.39 254.31-21.33 253.15-22.27 251.17-22.27L251.17-22.27Q249.42-22.27 248.22-21.53 247.02-20.8 247.02-19.58L247.02-19.58Q247.02-18.6 247.8-17.92 248.59-17.24 250.47-16.82L250.47-16.82 255.42-15.84Q263.28-14.28 263.28-8.47L263.28-8.47Q263.28-5.76 261.72-3.74 260.16-1.71 257.42-0.59 254.69 0.54 251.15 0.54L251.15 0.54Q245.73 0.54 242.53-1.72 239.33-3.98 238.77-7.89L238.77-7.89 246.19-8.28Q246.95-4.91 251.17-4.91L251.17-4.91Q253.15-4.91 254.37-5.69 255.59-6.47 255.59-7.67L255.59-7.67Q255.59-9.69 252.1-10.4L252.1-10.4 247.39-11.38Q239.5-12.96 239.5-19.14L239.5-19.14Q239.5-23.1 242.67-25.37 245.83-27.64 251.05-27.64L251.05-27.64Q256.23-27.64 259.21-25.45 262.18-23.27 262.65-19.51ZM275.63-15.77L275.63-15.77 275.63 0 268.07 0 268.07-36.38 275.39-36.38 275.39-22.44 275.73-22.44Q276.66-24.85 278.72-26.25 280.79-27.64 283.89-27.64L283.89-27.64Q288.13-27.64 290.72-24.9 293.31-22.17 293.31-17.36L293.31-17.36 293.31 0 285.77 0 285.77-16.02Q285.77-18.55 284.5-19.96 283.23-21.36 280.86-21.36L280.86-21.36Q278.56-21.36 277.1-19.89 275.63-18.41 275.63-15.77ZM311.79 0.54L311.79 0.54Q307.59 0.54 304.56-1.17 301.54-2.88 299.9-6.04 298.26-9.2 298.26-13.53L298.26-13.53Q298.26-17.72 299.89-20.9 301.51-24.07 304.46-25.85 307.42-27.64 311.42-27.64L311.42-27.64Q315.04-27.64 317.95-26.1 320.87-24.56 322.59-21.48 324.31-18.41 324.31-13.77L324.31-13.77 324.31-11.72 305.71-11.72Q305.83-8.62 307.52-6.86 309.2-5.1 311.91-5.1L311.91-5.1Q313.79-5.1 315.15-5.91 316.5-6.71 317.09-8.25L317.09-8.25 324.07-7.79Q323.26-4.03 320.05-1.75 316.84 0.54 311.79 0.54ZM305.76-16.38L305.76-16.38 317.06-16.38Q316.79-18.97 315.4-20.48 314.01-22 311.5-22L311.5-22Q308.96-22 307.48-20.42 306-18.85 305.76-16.38ZM336.84 0L329.27 0 329.27-27.29 336.59-27.29 336.59-22.51 336.88-22.51Q337.62-25.05 339.37-26.35 341.13-27.66 343.43-27.66L343.43-27.66Q343.99-27.66 344.65-27.59 345.31-27.51 345.8-27.39L345.8-27.39 345.8-20.7Q345.26-20.87 344.32-20.98 343.38-21.09 342.6-21.09L342.6-21.09Q340.11-21.09 338.47-19.52 336.84-17.94 336.84-15.43L336.84-15.43 336.84 0Z" opacity="1" transform="matrix(1,0,0,1,0,0)" fill="#3e4f3c" class="slogan-text-1" data-fill-palette-color="secondary" id="text-1"></path></svg></g></svg></g></svg></g></svg></g><g></g></svg></g><defs></defs></svg><rect width="395.52" height="126.91275715700965" fill="none" stroke="none" visibility="hidden"></rect></g></svg></g></svg>